<?xml version="1.0" encoding="iso-8859-1"?>
<!-- Generator: Adobe Illustrator 19.0.0, SVG Export Plug-In . SVG Version: 6.00 Build 0)  -->
<svg version="1.1" id="Layer_1" xmlns="http://www.w3.org/2000/svg" xmlns:xlink="http://www.w3.org/1999/xlink" x="0px" y="0px"
	 viewBox="0 0 512 512" style="enable-background:new 0 0 512 512;" xml:space="preserve">
<g>
	<circle style="fill:#415E72;" cx="130.234" cy="181.323" r="64.241"/>
	<path style="fill:#415E72;" d="M127.202,394.918L65.121,260.332c0,0-65.121,0.872-65.121,60.777s0,73.801,0,73.801
		S127.634,394.918,127.202,394.918z"/>
	<path style="fill:#415E72;" d="M133.274,394.918l62.081-134.578c0,0,65.121,0.872,65.121,60.777s0,73.801,0,73.801
		S132.842,394.918,133.274,394.918z"/>
</g>
<polygon style="fill:#32BEA6;" points="130.234,260.332 85.521,260.332 130.234,359.318 174.955,260.332 "/>
<g>
	<path style="fill:#E04F5F;" d="M225.124,201.275l42.353-20.552v8.04l-33.593,15.64v0.176l33.593,15.728v7.952l-42.353-20.552
		C225.124,207.699,225.124,201.275,225.124,201.275z"/>
	<path style="fill:#E04F5F;" d="M290.293,168.027v24.128h25.472v-24.128h10.984v60.225h-10.984v-26.536h-25.472v26.536H279.3
		v-60.225H290.293z"/>
	<path style="fill:#E04F5F;" d="M352.517,172.323v12.424h10.456v8.216h-10.456v19.208c0,5.272,1.432,8.04,5.624,8.04
		c1.872,0,3.304-0.264,4.288-0.536l0.176,8.4c-1.608,0.624-4.472,1.072-7.952,1.072c-4.024,0-7.416-1.336-9.472-3.576
		c-2.328-2.504-3.4-6.432-3.4-12.152v-20.464h-6.256v-8.216h6.256v-9.832L352.517,172.323z"/>
	<path style="fill:#E04F5F;" d="M371.302,197.691c0-5-0.096-9.2-0.36-12.96h9.48l0.448,6.432h0.264
		c2.152-3.392,6.08-7.416,13.408-7.416c5.72,0,10.176,3.216,12.064,8.04h0.176c1.512-2.416,3.304-4.2,5.36-5.448
		c2.416-1.696,5.176-2.592,8.76-2.592c7.232,0,14.56,4.912,14.56,18.856v25.648h-10.728v-24.032c0-7.24-2.496-11.528-7.776-11.528
		c-3.752,0-6.52,2.68-7.68,5.808c-0.264,1.072-0.536,2.408-0.536,3.664v26.096h-10.72v-25.2c0-6.072-2.416-10.36-7.504-10.36
		c-4.112,0-6.88,3.216-7.864,6.256c-0.448,1.072-0.624,2.328-0.624,3.576v25.736h-10.72L371.302,197.691L371.302,197.691z"/>
	<path style="fill:#E04F5F;" d="M447.119,164.819h11.08v63.441h-11.08V164.819z"/>
	<path style="fill:#E04F5F;" d="M512,207.883l-42.353,20.376v-7.952l34.137-15.728v-0.184l-34.137-15.728v-7.952L512,201.091
		V207.883z"/>
</g>
<g>
</g>
<g>
</g>
<g>
</g>
<g>
</g>
<g>
</g>
<g>
</g>
<g>
</g>
<g>
</g>
<g>
</g>
<g>
</g>
<g>
</g>
<g>
</g>
<g>
</g>
<g>
</g>
<g>
</g>
</svg>
